<svg xmlns="http://www.w3.org/2000/svg" viewBox="0 0 1575.77 414.91" xmlns:v="https://vecta.io/nano"><path d="M384.67 241.08l4.8-7.43c11.19-15.47 26.57-24.56 45.02-28.2 17.11-3.38 34.16-2.41 50.54 3.97 22.47 8.75 34.74 26.21 39.71 49.02 1.97 9.02 2.97 18.42 3.05 27.65l.23 117.47c.02 4.31-1.06 5.96-5.57 5.71-6.48-.36-12.99-.09-19.49-.09q-7.43 0-7.44-7.23l-.1-108.97c-.05-7.76-.72-15.65-2.24-23.26-4.39-22.08-19.44-34.67-40.01-35.87-23.86-1.4-44.52 7.2-55.89 26.44-5.67 9.59-9.32 20.01-10.16 31.03-1.16 15.07-1.65 30.21-1.85 45.33l.01 66.98c.04 4.41-1.31 5.84-5.7 5.65-7.48-.32-14.99-.2-22.49-.04-3.24.07-4.42-1.05-4.36-4.34.16-9.13.06-18.27.06-28.73-1.52 1.83-2.28 2.56-2.81 3.43-13.32 22.05-33.59 32.47-58.59 34.51-12.85 1.05-25.63.05-37.89-4.41-25.07-9.11-37.95-28.14-42.65-53.4-1.42-7.63-2.02-15.51-2.06-23.28l-.19-117.97c-.02-4.71 1.11-6.53 6.07-6.23 6.81.42 13.67.37 20.48.01 4.55-.24 5.99 1.12 5.97 5.82v115.97c.04 6.59.87 13.32 2.4 19.73 4.98 20.87 17.04 32 39.48 34.01 21.96 1.97 41.2-4.66 54.37-23.8 6.14-8.92 9.66-19.01 11.22-29.61 1.25-8.52 1.99-17.19 2.06-25.79l-.01-90.48c-.03-4.68 1.34-6.09 5.93-5.85 6.98.36 14.01.36 20.98 0 4.57-.24 5.72 1.47 5.54 5.74-.31 7.15-.1 14.33-.07 21.49 0 1.58.2 3.15.3 4.73l1.33.29zM616.96 374.4v11.66l.04 19c.07 2.96-.91 4.22-4.01 4.17-8.16-.13-16.33-.11-24.49-.01-2.79.03-4.02-1.04-3.81-3.83.09-1.16 0-2.33 0-3.5V104.95q0-7.24 7.41-7.25c6.33 0 12.68.24 18.99-.08 4.52-.23 5.98 1.16 5.96 5.88l-.11 127.48v7.86c2.32-1.97 3.58-2.85 4.61-3.95 22.92-24.53 51.04-34.58 84.28-30.13 46.32 6.2 77.4 33.61 87.45 78.18 9.77 43.31-4.54 87.78-39.79 113.36-36.28 26.32-89.03 24.01-121.41-5.67-4.13-3.78-7.33-8.58-10.93-12.93-.98-1.18-1.84-2.45-2.76-3.68l-1.44.41zm144.05-63.6c-.22-27.23-8.61-48.87-29.65-64.2-14.71-10.72-31.51-14.2-49.58-12.55-18.78 1.71-34.73 9-46.84 23.54-15.28 18.33-19.88 39.69-17.03 63.08 7.24 59.42 68 78.29 109.05 53.8 24.39-14.55 33.79-37.83 34.06-63.66zM400.97 161.45c-87.82-32.7-174.67-32.63-262.41-.03.69-2.39 1.01-3.92 1.56-5.36C165.09 91.19 206.83 39.95 265.21 2.2c3.23-2.09 5.55-2.27 8.91-.11 58.56 37.8 100.42 89.12 125.3 154.25.51 1.34.84 2.75 1.55 5.11zm607.51 157.65c2.73 26.13 14.16 45.83 36.78 58.25 16.14 8.85 33.43 8.91 50.95 5.08 17.65-3.86 31.44-13.87 43-28.16l22.25 17.63c.72.6.43 3.66-.43 4.74-14.73 18.25-33.36 30.55-56.52 35-25.44 4.89-50.71 4.73-74.71-6.6-30.27-14.3-47.48-39.03-53.89-71.23-5.29-26.6-3.15-52.74 9.76-77.14 15.94-30.13 41.3-47.1 74.89-51.76 21.21-2.94 41.86-.84 61.2 9.02 25.93 13.21 40.37 35.27 45.96 63.04 2.5 12.42 2.26 25.4 3.32 38.12.38 4.57-2.7 4.04-5.57 4.04-36.99-.01-73.97 0-110.96 0h-46.03zm.21-27.71h126.81c1.63-20.7-10.87-42.05-29.83-51.17-12.12-5.84-24.93-7.37-38.3-6.18-15.83 1.42-29.75 6.89-40.97 18.26-10.53 10.67-16.13 23.69-17.71 39.09zm422.94-37.28l-21.64-19.77c8.21-8.49 17.36-14.67 27.49-19.41 22-10.28 45.21-13.28 69.09-10.02 9.29 1.27 18.74 3.32 27.39 6.79 22.17 8.91 32.91 27.12 36.9 49.72 1.43 8.13 2 16.5 2.07 24.77l.37 93.46c.09 8.44 1.2 16.9 2.36 25.27.52 3.74-.84 4.33-3.93 4.29-7.16-.09-14.36-.42-21.48.1-5.34.39-6.19-2.56-6.44-6.52l-1.03-18.91c-.07-1.25-.26-2.49-.54-5.06l-4.35 5.26c-14.72 19.07-34.04 29.2-58.18 30.18-15.86.64-31.17-1.43-45.71-8.11-24.17-11.11-36.22-34.21-32.65-60.27 3.94-28.67 22.38-43.35 47.73-51.76 16.18-5.37 32.99-7.54 49.98-8.19l37.41-.9c3.21-.04 4.25-1 4.36-4.27.93-27.37-15.41-45.28-42.76-46.64-27.6-1.37-42.95 3.33-66.45 20zm86.31 58.09c0-.12-.01-.23-.02-.35-9.97.45-19.97.53-29.89 1.43-11.61 1.06-23.03 3.27-33.49 8.88-13.83 7.42-20.02 18.99-18.5 34.57 1.32 13.53 9.62 23.96 23.84 27.49 8.26 2.05 17.09 2.71 25.63 2.54 17.81-.36 32.49-7.75 43.11-22.31 10.66-14.61 12.88-31.38 12.14-48.88-.13-3.12-1.99-3.39-4.34-3.38h-18.49zM9.3 377.63l25.2-19.48c5.72 5.22 10.83 10.48 16.53 15 19.02 15.09 49.99 14.92 68.12 2.79 17.94-12 17.16-36.82-2.38-45.76-12.37-5.66-26.24-8.02-39.38-12.04-10.31-3.15-20.77-5.98-30.76-9.97-37.69-15.07-36.02-64.78-11.04-85.4 14.73-12.16 31.82-17.65 50.52-18.81 13.06-.81 25.92.43 38.31 5.01 15.41 5.71 27.4 15.44 35.78 30.62l-26.41 17.52c-4.19-4.41-7.7-8.89-11.97-12.47-16.15-13.56-42.17-14.83-59.74-3.23-9.56 6.31-14.1 17.03-11.01 26.08 2.02 5.9 6.5 9.57 11.68 12.45 11.95 6.65 25.16 9.32 38.37 11.97 13.24 2.65 26.25 5.93 38.3 12.29 21.5 11.36 29.69 31.9 26.92 55.37-3.01 25.47-18.09 40.97-41.41 48.7-27.53 9.13-55.3 9.19-82.45-1.9-13.93-5.69-24.43-15.81-33.2-28.74zm530.32-244.81c-43.53 1.7-83.82 11.93-122.71 29.81C393.96 96 354.13 42.17 297.81.25c44.02 3.11 85.54 14.79 124.73 34.68 46.29 23.5 85.04 56.06 117.09 97.89zM242.22.5c-56.77 41.63-96.72 95.4-119.6 162.14C83.78 144.76 43.48 134.54 0 132.81c23.59-31.29 51.27-57.2 83.42-78.32C129.92 23.94 212.51-4.12 242.22.5zM1223.53 253V104.56q0-6.86 6.85-6.87l21.49-.02c2.95-.04 4.41 1.01 4.1 4.09-.08.82 0 1.66 0 2.5v298.37q0 6.55-6.53 6.56c-6.5 0-13.01-.31-19.49.1-4.99.32-6.58-1.18-6.54-6.35l.12-86.46v-63.47zm97.17.02l-.11-149c-.02-5.09 1.38-6.76 6.45-6.43 6.31.41 12.66.09 18.99.1q6.92 0 6.93 6.72v206.5l.11 92.5c.03 4.68-1.35 6.09-5.93 5.87-6.98-.35-14.01-.36-20.99 0-4.58.24-5.54-1.51-5.53-5.76l.08-150.5zm-444.84-10.67l2.76-3.75c16.6-26.57 41.55-35.96 71.58-34.54 6.74.32 7.25 1.83 6.46 8.68-.82 7.09-1.25 14.24-1.57 21.37-.15 3.3-.9 4.15-4.5 3.48-17.84-3.32-34.91-1.47-49.72 10-12.39 9.6-18.06 23.26-20.71 38.16-1.42 7.97-2.06 16.17-2.12 24.27l.03 92.97c.04 5.25-1.6 6.58-6.53 6.29-6.81-.4-13.67-.36-20.48 0-4.53.23-5.61-1.47-5.6-5.74V259.09c-.07-14.95-1.02-29.91-1.79-44.85-.21-4.17 1.15-5.58 5.34-5.39a204.34 204.34 0 0 0 19.49 0c4.25-.2 5.91.94 5.84 5.51-.13 7.97.44 15.95.75 23.93.04.92.34 1.83.79 4.07z"/></svg>