<svg xmlns="http://www.w3.org/2000/svg" width="100%" height="100%" viewBox="0 0 3838 475" fill-rule="nonzero" stroke-linejoin="round" stroke-miterlimit="2" fill="#fff" xmlns:v="https://vecta.io/nano"><path d="M3400.83 18.963h56.942v189.604h64.479l210.492-189.604h76.587l-233.171 211.966 259.154 227.075h-79.508l-231.696-202.4h-66.337v202.4h-56.942V18.963zM858.267 295l101.641-180.342L1061.533 295H858.267zm360.712 163.004L959.867 1.542 701.175 458.004h64.7L832.6 340.3h254.617l66.979 117.704h64.783zM2643.7 18.963h56.967v439.042H2643.7zm441.5 449.37c-139.317 0-252.625-102.512-252.625-228.591 0-126.054 113.308-228.621 252.625-228.621 68.25 0 132.129 24.425 180.108 68.687l-45.245 30.792c-36.996-29.917-84.809-48.208-134.863-48.208-110.083 0-196.012 80.546-196.012 177.35 0 96.787 85.929 177.333 196.012 177.333 55.6 0 109.071-22.567 146.829-58.713l44.454 30.325c-48.166 50.63-117.787 79.646-191.283 79.646zm-924.67-335.287L1997.28 475 1801.742 19.521h61.234l138.454 312.967L2160.551 2.625l159.133 329.863 138.471-312.967h61.229L2323.838 475l-163.254-341.954h-.054zm-1801.734 0L195.533 475 0 19.521h61.229l138.454 312.967L358.812 2.625l159.126 329.863L656.396 19.521h61.242L522.104 475 358.838 133.046h-.042zM1388.67 65.3h164.629c66.829 0 98.483 38.883 98.483 83.579 0 44.725-34.833 84.4-110.45 84.4H1388.67V65.3zm281.704 392.704h73.158l-167.337-179.808c62.458-6.913 128.141-49.838 128.141-129.317 0-79.437-58.37-130.15-141.104-130.15h-231.533v439.275h56.971V279.867h119.929l161.775 178.137z"/></svg>