<?xml version="1.0" encoding="UTF-8"?>
<svg id="Layer_2" data-name="Layer 2" xmlns="http://www.w3.org/2000/svg" viewBox="0 0 1920 545.9">
  <defs>
    <style>
      .cls-1 {
        fill: #a6a6a6;
      }

      .cls-1, .cls-2, .cls-3, .cls-4, .cls-5, .cls-6, .cls-7, .cls-8 {
        stroke-width: 0px;
      }

      .cls-2 {
        fill: #9f9f9f;
      }

      .cls-3 {
        fill: #424242;
      }

      .cls-4 {
        fill: #9e9e9e;
      }

      .cls-5 {
        fill: #cfcfcf;
      }

      .cls-6 {
        fill: #434343;
      }

      .cls-7 {
        fill: #bdbdbd;
      }

      .cls-8 {
        fill: #fff;
      }
    </style>
  </defs>
  <g id="Layer_1-2" data-name="Layer 1">
    <path class="cls-8" d="M766.02,379.59v-189.65c15.52.45,31.38.46,47.16,1.59,6.89.49,13.85,2.71,20.36,5.2,5.9,2.26,9.3,7.2,9.27,13.95,0,1.26,0,2.69.55,3.75.8,1.51,2.12,2.75,3.22,4.11,1.01-1.43,2.72-2.79,2.9-4.31.54-4.77.54-9.6.68-14.4.24-8.48.67-16.97.56-25.46-.06-4.99-.87-5.09-5.72-4.43-7.84,1.07-15.71,2.47-23.58,2.56-29.61.33-59.22.3-88.83.16-21.67-.1-43.34-.37-65-1-5.98-.18-12.05-1.44-17.82-3.11-6.04-1.75-7.14-1.73-8.52,4.51-1.91,8.69-3.61,17.43-5.19,26.18-.77,4.29-1.23,8.66-1.46,13.02-.05.98,1.45,2.84,2.29,2.87,1.22.04,2.66-1.02,3.68-1.96.64-.58.7-1.8,1-2.75,3.68-11.76,11.42-18.09,23.98-18.42,8.91-.23,17.81-1.01,26.71-1.19,10.68-.22,21.37-.05,32.29-.05.03.42.12,1.11.12,1.79-.07,59.93-.07,119.85-.34,179.78-.04,8.01-1.2,16.08-2.45,24.02-1.1,6.93-4.04,9.29-10.99,10.26-2.93.41-5.96.28-8.84.88-1.66.35-3.12,1.67-4.67,2.55,1.54,1.11,2.97,2.89,4.65,3.18,3.02.53,6.2.2,9.31.17,15.28-.13,30.55-.38,45.83-.37,12.46,0,24.92.37,37.38.43,2.43.01,5.8.21,5.74-3.28-.02-.96-3.57-2.38-5.63-2.68-5.59-.82-11.26-1.02-16.87-1.73-5.02-.64-8.35-3.74-9.36-8.59-1.15-5.51-1.64-11.16-2.44-17.57"/>
    <path class="cls-8" d="M909.06,334.6c-.11,12.04.13,24.1-.46,36.12-.44,9.15-1.67,18.28-3.06,27.34-.78,5.13-4.29,8.11-9.69,8.49-3.38.24-6.8.33-10.11.97-1.44.28-2.65,1.78-3.96,2.73,1.3,1.01,2.47,2.41,3.95,2.94,1.53.55,3.36.34,5.05.3,13.87-.34,27.74-1.1,41.61-.98,18.12.16,36.23,1.21,54.34,1.53,14.87.27,29.75.12,44.62,0,4.3-.03,8.78-1.2,9.57-6.06,2.19-13.51,3.9-27.1,5.51-40.69.14-1.21-1.75-2.67-2.7-4.01-1.17,1.21-2.47,2.33-3.47,3.68-.44.59-.21,1.65-.34,2.49-2.28,15.18-11.47,24.7-26.02,25.85-10,.79-20.09.88-30.13.64-6.46-.16-12.97-1.11-19.31-2.42-6.78-1.39-11.44-5.6-12.4-12.82-.92-7-2.15-14.04-2.19-21.07-.26-47.47-.3-94.95-.27-142.42,0-8.49.42-16.99,1.06-25.46.58-7.73,4.5-11.96,11.6-13.06,3.63-.56,7.33-.63,11-.98,2.61-.25,6.77,1.04,6.62-3.06-.14-3.83-4.26-2.89-6.9-2.86-16.57.19-33.14.71-49.71.75-12.74.03-25.48-.55-38.23-.75-2.44-.04-5.96-.6-6.07,2.91-.11,3.67,3.44,2.76,5.85,3.04,4.2.49,8.46.81,12.57,1.75,5.39,1.23,9.21,4.59,10,10.28.79,5.72,1.49,11.51,1.51,17.28.15,42.23.12,84.46.15,127.54Z"/>
    <path class="cls-2" d="M902.58,545.9c-5.8-.52-11.19-1.27-16.6-1.52-37.77-1.72-75.38-5.35-112.81-10.55-64.55-8.96-128.09-22.56-190.2-42.54-2.8-.9-5.61-1.78-8.22-3.46,3.65.8,7.31,1.54,10.95,2.41,30.44,7.26,61.25,12.27,92.32,15.94,49.63,5.85,99.43,7.06,149.28,5.39,26.99-.9,53.96-3.07,80.86-5.55,73.5-6.77,145.89-20.18,217.64-37.28,54.99-13.11,109.2-28.71,161.82-49.51,34.56-13.66,68.03-29.55,100.07-49.37.85.37,1.18.64,1.43.98,15.29,20.37,35.43,33.61,59.63,41.12,14.03,4.35,28.5,5.26,42.98,6.41-8.06,5.7-15.88,11.78-24.23,17.02-30.24,18.98-62.86,32.95-96.36,44.97-52.42,18.81-106.24,32.5-160.98,42.43-30.71,5.57-61.63,10.21-92.59,14.2-23.26,3-46.74,4.41-70.14,6.31-11.41.92-22.87,1.34-34.5,2.29-36.78.31-73.36.31-110.34.31Z"/>
    <path class="cls-3" d="M0,242.74c1.11-6.29,2.18-12.19,3.32-18.07,12.53-64.59,59.42-111.3,124.53-123.49,39.12-7.33,77.74-5.3,115.35,8.5,25.3,9.28,46.49,24.41,63.42,46.21,8.65,11.97,15.37,24.36,19.94,37.86,7.61,22.52,10.25,45.63,8.69,69.35-1.2,18.34-4.63,36.14-11.28,53.25-2.86,7.35-6.37,14.45-9.58,21.67-5.78,8.19-11.02,16.84-17.45,24.48-25.4,30.16-58.19,47.58-96.8,54.06-34.04,5.72-67.78,4.16-100.35-7.97-47.99-17.87-78.08-52.7-92.73-101.18-3.16-10.48-4.38-21.54-6.77-32.54C0,264.15,0,253.64,0,242.74M271.39,214.49c-3.29-9.3-5.89-18.93-10-27.86-21.19-46.05-64.59-74.36-116.72-68.54-35.22,3.93-60.21,22.02-74.7,54.32-7.79,17.35-11.05,35.8-12.43,54.69-2.14,29.42.16,58.36,10.58,86.08,18.49,49.2,51.67,80.83,106.17,85.03,32.87,2.54,60.17-8.7,79.49-36.09,16.81-23.84,22.01-51.36,23.54-80.58,1.65-22.44-.01-44.59-5.93-67.05Z"/>
    <path class="cls-6" d="M1920,411.23c-2.52.96-5.04,2.15-7.57,2.16-15.44.09-30.88.04-46.32-.23-11.78-.2-22.39-3.93-31.9-11.07-14.63-10.98-26.54-24.66-38.36-38.39-20.32-23.6-40.25-47.53-60.35-71.32-.24-.29-.64-.44-1.38-.94-.13,1.34-.32,2.36-.32,3.38.06,25.22.05,50.43.28,75.65.07,7.48.53,14.99,1.36,22.43,1.01,9.03,5.43,12.91,14.39,13.58,3.67.27,7.33.62,11.01.85,2.25.14,5.25-.2,4.91,2.93-.14,1.23-3.24,2.97-5.03,3.02-8.21.24-16.43-.14-24.64-.12-20.24.05-40.48.2-60.72.28-1.83,0-3.8.15-5.46-.46-1.17-.43-1.92-2.02-2.86-3.09,1.03-.82,1.97-2.17,3.1-2.36,3.47-.56,7.02-.76,10.54-.94,6.23-.32,9.81-3.91,10.59-9.69,1.28-9.51,2.61-19.1,2.71-28.67.46-44.9.58-89.81.65-134.71.02-12.6-.39-25.2-.82-37.8-.39-11.22-5.07-16.09-16.26-17.32-3.51-.38-7.06-.48-10.58-.73-2.1-.15-4.88.02-4.35-3.03.2-1.17,2.72-2.74,4.21-2.77,8.78-.19,17.56.09,26.35.08,17.27-.02,34.54-.14,51.8-.2,3.68-.01,7.4-.25,11.03.2,1.34.16,2.47,1.99,3.7,3.06-1.25.89-2.38,2.15-3.77,2.57-1.86.56-3.92.37-5.88.65-11.57,1.69-15.16,5.49-15.42,17.22-.42,19.11-.6,38.23-.83,57.34-.08,7.08-.03,14.17,0,21.25,0,1.33.14,2.66.26,4.86,1.55-1.39,2.5-2.14,3.33-3,20.43-21.4,40.92-42.75,61.22-64.28,5.23-5.55,9.97-11.59,14.66-17.63,1.78-2.29,3.13-5.08,4.06-7.85,1.41-4.22-.17-6.51-4.23-8.25-1.5-.65-2.55-2.36-3.8-3.59,1.68-.86,3.36-2.48,5.04-2.47,12.89.07,25.77.65,38.65.67,10.33.02,20.66-.51,30.99-.79,1.13-.03,2.46-.31,3.35.17,1.16.63,2.67,1.89,2.7,2.92.03.91-1.65,2.49-2.78,2.7-3.87.74-7.88.75-11.75,1.5-16.71,3.24-29.61,13.18-41.32,24.66-22.56,22.11-44.79,44.55-67.14,66.86-1.08,1.08-2.06,2.27-3.43,3.8,7.44,8.45,14.55,16.89,22.04,24.97,20.79,22.42,41.44,44.97,62.75,66.89,9.53,9.81,20.1,18.73,30.9,27.14,10.63,8.28,22.98,13.22,36.7,14.05,1.16.07,2.26.92,3.71,1.48.31.72.31,1.36.31,2.31Z"/>
    <path class="cls-5" d="M817.94.78s.07-.39.06-.59c27.22-.2,54.45-.2,82.07-.2.4,0,.38.4.01.64-27.63.21-54.89.18-82.15.14Z"/>
    <path class="cls-2" d="M817.55.81c27.66,0,54.92.04,82.58.03,121.24,3.67,239.5,21.72,353.76,64.1.35.63.36.86.38,1.1-28.21-8.32-56.78-15.19-85.85-19.64-21.09-3.23-42.29-5.95-63.51-8.17-36.65-3.83-73.46-5.08-110.27-3.93-27.43.86-54.85,2.59-82.21,4.73-21.27,1.67-42.54,3.93-63.64,7.08-29.35,4.38-58.6,9.5-87.77,14.9-42.71,7.91-84.88,18.24-126.66,30.1-51.13,14.51-101.26,31.83-149.12,55.12-15.75,7.67-30.84,16.72-46.75,25.44-13.38.34-26.23.4-39.08.37-10.18-.02-20.37-.18-30.55-.25-2.28-.02-4.75.52-4.32,3.25.18,1.1,2.8,2.33,4.44,2.57,4.04.6,8.17.48,12.23.98,7.7.95,12.45,4.86,13.76,11.7.79,4.13.82,8.41,1.19,12.62-3.56,2.94-7.31,5.67-10.63,8.84-15.8,15.07-29.32,31.82-37.81,52.2-12.32,29.58-9.77,58.28,5.28,86.16,12.74,23.6,31.38,42.02,51.86,59.21-.11.53-.21.64-.31.76-14.09-9.64-28.44-18.91-42.2-29-17.21-12.63-33.22-26.72-47.82-42.78,3.06-7.49,6.57-14.59,9.43-21.95,6.65-17.11,10.08-34.91,11.28-53.25,1.55-23.72-1.08-46.83-8.69-69.35-4.56-13.5-11.29-25.88-19.7-37.71,11.72-13.4,25.35-24.43,39.73-34.56,39.12-27.53,82.31-46.85,127.18-62.74,52.41-18.55,106.22-31.83,161.07-40.48,32.52-5.13,65.26-9.06,98.03-12.23,28-2.7,56.19-3.53,84.68-5.21Z"/>
    <path class="cls-6" d="M1323.36,247.16c9.5,35.27,7.41,69.39-8.68,101.98-17.11,34.66-45.36,55.93-82.71,64.75-30.02,7.08-60,5.97-88.9-5.32-36.7-14.34-59.95-41.57-70.21-79.18-12.45-45.62-3.89-87.33,27.69-123.15,18.29-20.74,42.23-32.01,69.28-36.47,30.25-4.98,60.12-3.5,88.93,7.86,32.41,12.78,54.12,35.76,64.6,69.52M1265.39,372.95c3.18-6.14,6.84-12.08,9.44-18.45,5.96-14.56,7.93-29.97,8.67-45.59,1.06-22.43-.97-44.46-9.57-65.37-13.95-33.91-37.63-56.26-75.42-60.1-35.75-3.63-67.45,12.49-79.37,50.64-11.16,35.7-10.29,71.59,3.78,106.39,13.65,33.76,37.83,55.64,75.06,60.39,27.33,3.48,50.32-4.57,67.41-27.9Z"/>
    <path class="cls-6" d="M1492.08,418.37c-14.83-1.15-29.31-2.07-43.34-6.42-24.2-7.5-44.35-20.75-59.63-41.12-.25-.34-.58-.61-1.14-1.07-6.92-10.68-13.3-21.38-17.02-33.36-14.78-47.61-7.73-91.17,25.02-129.49,12.96-15.17,29.69-25.17,48.88-31.76.4-.03.65-.25.65-.25,0,0,.26-.18.68-.31,2.16-.8,3.9-1.47,5.65-2.14,15.62-3.43,31.36-5.57,47.41-5.22,25.41.56,49.79,5.26,71.95,18.27,29.77,17.48,46.48,44.04,51.85,77.73,4.63,29.04,1.58,57.35-11.33,84.04-17.93,37.07-47.8,59.12-87.78,67.47-10.3,2.15-20.99,2.48-31.86,3.63M1421.46,346.06c4.61,10.95,11.29,20.57,19.6,28.94,19.71,19.85,43.78,28.16,72.26,26.32,29.28-3.7,47.79-20.58,58-47.53,5.16-13.61,7.26-27.83,8.15-42.28,1.61-26.08-1.11-51.53-12.65-75.28-15.37-31.64-40-50.81-75.9-53.09-7.57-.48-15.28,1.36-23.58,2.02-3.19,1.02-6.39,2.05-10.11,3.02-.94.27-1.92.45-2.81.83-18.64,8.02-30.93,22.13-37.78,40.85-10.58,28.96-11.1,58.69-4.53,88.51,2.04,9.25,6.14,18.05,9.34,27.68Z"/>
    <path class="cls-6" d="M396.2,203.33c-.41-4.64-.43-8.92-1.22-13.05-1.31-6.84-6.06-10.75-13.76-11.7-4.06-.5-8.19-.38-12.23-.98-1.65-.24-4.26-1.47-4.44-2.57-.44-2.73,2.04-3.27,4.32-3.25,10.18.07,20.37.22,30.55.25,12.85.03,25.7-.04,38.9-.14,7.28-.09,14.22-.15,21.16-.09,2.22.02,5.21-.11,4.76,3.12-.15,1.12-2.95,2.32-4.71,2.7-3.16.69-6.49.57-9.67,1.18-6.96,1.33-10.61,6.04-11.1,14.51-.47,8.06-.85,16.13-.87,24.2-.07,34.01-.22,68.03.12,102.04.16,15.16,1.96,30.2,7.55,44.53,8.39,21.52,29.07,35.89,52.16,36.55,14.7.42,28.42-2.41,40.77-10.67,16.07-10.76,22.4-27.03,24.29-45.18,1.45-13.91,1.88-27.97,1.97-41.97.2-33.02-.05-66.03-.19-99.05-.02-3.95-.35-7.93-.85-11.85-1-7.8-5.67-12.15-14.21-13.31-3.5-.47-7.05-.64-10.58-.85-2.25-.14-5.2.26-5.24-2.83-.05-3.4,3.11-3.14,5.45-3.11,9.91.12,19.83.55,29.74.52,14.44-.03,28.88-.36,43.32-.55,1.56-.02,3.25-.3,4.64.2,1.35.49,2.4,1.83,3.59,2.79-1.17.97-2.22,2.55-3.52,2.81-3.31.64-6.76.55-10.11,1-7.76,1.05-11.84,4.87-12.41,12.65-.8,10.86-1.32,21.76-1.4,32.65-.19,27.21.01,54.42-.09,81.63-.06,17.03-1.4,33.92-6.18,50.39-8.87,30.54-29.42,49.53-59.38,58.1-23.64,6.76-47.77,5.89-71.27-1-30.7-8.99-48.84-30.31-55.29-61.23-2.53-12.11-3.88-24.66-4.08-37.03-.6-36.98-.36-73.97-.48-111.39Z"/>
    <path class="cls-6" d="M766.03,380c.79,6,1.28,11.65,2.43,17.15,1.01,4.85,4.34,7.94,9.36,8.59,5.6.72,11.28.91,16.87,1.73,2.06.3,5.61,1.72,5.63,2.68.07,3.49-3.31,3.29-5.74,3.28-12.46-.06-24.92-.43-37.38-.43-15.28,0-30.55.25-45.83.37-3.11.03-6.29.36-9.31-.17-1.68-.3-3.11-2.07-4.65-3.18,1.55-.88,3.01-2.2,4.67-2.55,2.88-.6,5.91-.47,8.84-.88,6.96-.97,9.9-3.33,10.99-10.26,1.26-7.94,2.42-16,2.45-24.02.28-59.93.27-119.85.34-179.78,0-.69-.09-1.38-.12-1.79-10.92,0-21.61-.16-32.29.05-8.91.18-17.81.96-26.71,1.19-12.55.32-20.3,6.66-23.98,18.42-.29.94-.36,2.16-1,2.75-1.03.94-2.46,2.01-3.68,1.96-.84-.03-2.34-1.89-2.29-2.87.22-4.35.68-8.72,1.46-13.02,1.58-8.76,3.28-17.49,5.19-26.18,1.37-6.24,2.47-6.26,8.52-4.51,5.77,1.67,11.84,2.94,17.82,3.11,21.66.64,43.33.91,65,1,29.61.13,59.22.16,88.83-.16,7.87-.09,15.74-1.49,23.58-2.56,4.85-.66,5.66-.56,5.72,4.43.11,8.48-.31,16.97-.56,25.46-.14,4.81-.14,9.64-.68,14.4-.17,1.53-1.89,2.88-2.9,4.31-1.1-1.36-2.42-2.59-3.22-4.11-.56-1.05-.56-2.49-.55-3.75.03-6.75-3.37-11.69-9.27-13.95-6.52-2.49-13.47-4.71-20.36-5.2-15.78-1.13-31.64-1.14-47.16-1.59,0,63.38,0,126.51,0,190.06Z"/>
    <path class="cls-6" d="M909.06,334.17c-.03-42.66,0-84.89-.15-127.12-.02-5.76-.72-11.55-1.51-17.28-.79-5.7-4.61-9.05-10-10.28-4.11-.94-8.37-1.26-12.57-1.75-2.42-.28-5.96.63-5.85-3.04.1-3.51,3.63-2.95,6.07-2.91,12.74.21,25.49.78,38.23.75,16.57-.03,33.14-.55,49.71-.75,2.64-.03,6.77-.98,6.9,2.86.15,4.09-4.01,2.81-6.62,3.06-3.66.35-7.37.42-11,.98-7.1,1.09-11.02,5.33-11.6,13.06-.64,8.47-1.05,16.97-1.06,25.46-.03,47.47,0,94.95.27,142.42.04,7.03,1.27,14.07,2.19,21.07.95,7.23,5.62,11.43,12.4,12.82,6.34,1.31,12.85,2.26,19.31,2.42,10.03.25,20.13.16,30.13-.64,14.55-1.15,23.74-10.67,26.02-25.85.13-.84-.1-1.9.34-2.49.99-1.35,2.29-2.47,3.47-3.68.95,1.34,2.84,2.8,2.7,4.01-1.62,13.59-3.33,27.18-5.51,40.69-.79,4.86-5.26,6.02-9.57,6.06-14.87.12-29.75.27-44.62,0-18.12-.33-36.23-1.37-54.34-1.53-13.86-.13-27.74.64-41.61.98-1.69.04-3.53.24-5.05-.3-1.48-.53-2.64-1.92-3.95-2.94,1.31-.95,2.52-2.45,3.96-2.73,3.31-.64,6.73-.73,10.11-.97,5.41-.38,8.91-3.36,9.69-8.49,1.39-9.06,2.61-18.2,3.06-27.34.58-12.02.34-24.08.46-36.54Z"/>
    <path class="cls-1" d="M1451.74,172.16c-1.66.96-3.4,1.63-5.45,2.32-6.72-6.83-13.13-13.69-19.54-20.55l.41-.72c8.16,6.22,16.33,12.44,24.58,18.95Z"/>
    <path class="cls-7" d="M1254.5,66.18c-.25-.38-.26-.61-.29-1.19,4.89,1.33,9.79,3.01,14.69,4.68-.11.36-.23.71-.34,1.07-4.61-1.47-9.22-2.94-14.06-4.56Z"/>
    <path class="cls-2" d="M405.01,409.55c.43.18.71.53.99.88-.38,0-.75.01-1.28-.17-.05-.31.05-.42.3-.71Z"/>
    <path class="cls-1" d="M1445.43,174.82c.07.08-.18.31-.25.25s.18-.33.25-.25Z"/>
    <path class="cls-4" d="M277.23,281.9c-5.01-9.91-7.47-20.87-8.41-32.11-.96-11.41-.22-22.78,2.62-34.29,5.87,21.46,7.53,43.61,5.8,66.4Z"/>
    <path class="cls-4" d="M1512.6,401.27c-27.76,1.89-51.83-6.43-71.54-26.27-8.31-8.37-14.99-17.99-19.51-29.55,1.63-2.07,3.12-3.57,4.71-4.97,13.59-11.9,25.65-25.12,35.02-40.63,19.63-32.51,21.48-65.67,3.3-99.45-2.2-4.09-4.54-8.11-6.81-12.16,3.19-1.02,6.39-2.05,10.21-2.93,6.55,5.4,12.63,10.48,18.35,15.95,21.18,20.25,40.18,42.23,52.75,69.04,17.16,36.59,16.33,72.29-6.53,106.32-5.87,8.74-13.26,16.46-19.95,24.65Z"/>
  </g>
</svg>