<svg version="1.1" id="Layer_1" xmlns="http://www.w3.org/2000/svg" xmlns:xlink="http://www.w3.org/1999/xlink" x="0px" y="0px"
	 width="100%" viewBox="0 0 2258 642" enable-background="new 0 0 2258 642" xml:space="preserve">
<path fill="#FFFFFF" opacity="1.000000" stroke="none" 
	d="
M2259.000000,485.000031 
	C2259.000000,537.648804 2259.000000,590.297546 2259.000000,643.000000 
	C1903.638672,643.000000 1548.277222,643.000000 1192.689209,642.638794 
	C1205.911133,641.520935 1219.381958,641.037354 1232.803833,639.950317 
	C1260.322266,637.721558 1287.929443,636.058777 1315.289429,632.530762 
	C1351.700928,627.835632 1388.056274,622.380371 1424.177124,615.826782 
	C1488.547241,604.147949 1551.842529,588.047485 1613.495239,565.926086 
	C1652.891479,551.790466 1691.261841,535.361267 1726.821777,513.037842 
	C1736.641357,506.873383 1745.839111,499.718323 1755.746338,493.024841 
	C1768.531860,491.663391 1781.099731,491.283417 1793.217896,488.751526 
	C1840.232788,478.928558 1875.359009,452.995728 1896.449341,409.403961 
	C1911.635864,378.014740 1915.221313,344.713959 1909.774536,310.567017 
	C1903.455566,270.951172 1883.809326,239.718475 1848.793945,219.157349 
	C1822.731567,203.853455 1794.059692,198.322952 1764.171875,197.666992 
	C1745.291260,197.252594 1726.779297,199.769470 1708.312500,203.465500 
	C1698.610962,195.810669 1689.009155,188.496140 1679.407349,181.181625 
	C1679.245117,181.464905 1679.082886,181.748184 1678.920654,182.031464 
	C1686.462036,190.094803 1694.003540,198.158157 1701.412354,206.352707 
	C1701.279785,206.483917 1700.970215,206.692200 1700.884155,206.601379 
	C1700.798096,206.510544 1700.510254,206.837585 1700.120361,206.929581 
	C1677.635132,214.746506 1657.962891,226.504135 1642.716309,244.348236 
	C1604.204590,289.421204 1595.912476,340.642426 1613.292236,396.635437 
	C1617.668091,410.733032 1625.173218,423.313721 1632.652222,435.803223 
	C1595.286987,459.284058 1555.921387,477.971741 1515.280029,494.031555 
	C1453.398438,518.484558 1389.644653,536.839478 1324.977905,552.251953 
	C1240.593872,572.363708 1155.464233,588.138428 1069.026978,596.095032 
	C1037.391968,599.007019 1005.668823,601.562256 973.930481,602.622986 
	C915.305725,604.582214 856.739136,603.164795 798.373108,596.281616 
	C761.826965,591.971680 725.597046,586.074219 689.800110,577.537476 
	C685.525757,576.518127 681.216492,575.645325 676.923401,574.704590 
	C680.000488,576.679138 683.300720,577.717712 686.594238,578.777161 
	C759.628662,602.270264 834.356323,618.267273 910.271912,628.805908 
	C954.295532,634.917297 998.517761,639.191101 1042.940796,641.214844 
	C1049.307861,641.504944 1055.647583,642.390198 1062.000000,643.000000 
	C708.440002,643.000000 354.880005,643.000000 1.000000,643.000000 
	C1.000000,536.972168 1.000000,430.944031 1.331648,324.700592 
	C4.147791,337.179382 5.575366,350.192810 9.297529,362.513000 
	C26.522898,419.528076 61.907780,460.490540 118.346420,481.510345 
	C156.650650,495.776215 196.326385,497.607056 236.362411,490.882080 
	C281.766663,483.255310 320.335541,462.766388 350.204285,427.302155 
	C357.772003,418.316711 363.924622,408.139465 370.910522,398.837433 
	C388.086212,417.725830 406.916077,434.295319 427.152893,449.149384 
	C443.325317,461.020142 460.209106,471.921814 476.957153,483.476532 
	C477.580261,483.692535 478.023315,483.685608 478.466400,483.678711 
	C478.139648,483.267517 477.812897,482.856354 477.317383,482.161926 
	C453.046722,462.152100 431.122040,440.480713 416.143921,412.730713 
	C398.447205,379.943817 395.444458,346.190979 409.935516,311.406738 
	C419.918457,287.443787 435.824127,267.740204 454.405029,250.019913 
	C458.318939,246.287277 462.729431,243.075317 466.953247,240.128281 
	C467.097473,284.131317 466.816315,327.635651 467.516693,371.124237 
	C467.751099,385.677917 469.339050,400.431732 472.311432,414.676056 
	C479.898712,451.036346 501.235901,476.105530 537.337769,486.682434 
	C564.978455,494.780457 593.349548,495.808929 621.152222,487.857910 
	C656.388855,477.780884 680.550720,455.442902 690.987915,419.526123 
	C696.615601,400.159912 698.184570,380.291077 698.257507,360.267761 
	C698.374023,328.268188 698.137695,296.266876 698.361023,264.268433 
	C698.450378,251.463623 699.063477,238.642502 700.002991,225.870361 
	C700.675842,216.724121 705.470886,212.233124 714.595642,210.993515 
	C718.543518,210.457184 722.595703,210.568375 726.489624,209.813782 
	C728.026489,209.515945 729.261536,207.660904 730.634033,206.514969 
	C729.242371,205.380707 728.008728,203.808182 726.415283,203.233856 
	C724.781006,202.644821 722.794067,202.976837 720.962769,203.000793 
	C703.979431,203.222885 686.996643,203.611206 670.013000,203.651810 
	C658.355591,203.679688 646.697815,203.181183 635.038635,203.035751 
	C632.283752,203.001373 628.572510,202.694824 628.631165,206.695129 
	C628.684570,210.335342 632.149536,209.864120 634.798950,210.025375 
	C638.952271,210.278122 643.123779,210.467682 647.241211,211.026077 
	C657.282593,212.387939 662.771545,217.502457 663.948303,226.674728 
	C664.540527,231.290512 664.932007,235.965607 664.952637,240.615921 
	C665.125000,279.445312 665.417236,318.276611 665.179626,357.104279 
	C665.078918,373.566345 664.566284,390.101135 662.862549,406.459351 
	C660.638733,427.810760 653.192078,446.942596 634.294067,459.595947 
	C619.770325,469.320465 603.635742,472.639557 586.348633,472.149567 
	C559.192993,471.379913 534.867859,454.479004 525.000916,429.167297 
	C518.429749,412.310455 516.303711,394.622467 516.120789,376.798523 
	C515.710388,336.802795 515.886963,296.800232 515.974548,256.800781 
	C515.995361,247.313309 516.440674,237.817444 516.992676,228.343018 
	C517.572998,218.383240 521.863525,212.843842 530.050781,211.277359 
	C533.794128,210.561157 537.709045,210.701416 541.424072,209.892654 
	C543.492188,209.442429 546.779663,208.041962 546.961121,206.719025 
	C547.482056,202.921509 543.974487,203.071808 541.358276,203.050537 
	C533.199280,202.984207 525.039124,203.053879 517.090454,202.794769 
	C535.399536,192.619202 553.135010,181.974670 571.663269,172.959366 
	C627.948669,145.572586 686.907349,125.197716 747.032837,108.139130 
	C796.167053,94.198959 845.759155,82.048653 895.987122,72.743309 
	C930.302795,66.385902 964.700439,60.365627 999.213989,55.216942 
	C1024.028564,51.515129 1049.044189,48.854290 1074.061523,46.894981 
	C1106.239868,44.374821 1138.488159,42.338924 1170.744995,41.332520 
	C1214.037598,39.981789 1257.327148,41.450108 1300.427246,45.957077 
	C1325.387695,48.567184 1350.309937,51.766106 1375.117188,55.562912 
	C1409.305298,60.795464 1442.901245,68.875954 1476.345459,78.834969 
	C1482.034546,80.737785 1487.456055,82.468559 1492.877441,84.199326 
	C1493.011597,83.779106 1493.145752,83.358887 1493.279907,82.938660 
	C1487.516479,80.965889 1481.753174,78.993111 1475.617188,76.963593 
	C1341.254883,27.524765 1202.179199,6.305466 1060.018555,1.698634 
	C1059.975220,1.468232 1060.000000,1.000000 1060.000000,1.000000 
	C1459.567627,1.000000 1859.135254,1.000000 2259.000000,1.000000 
	C2259.000000,161.027908 2259.000000,321.056000 2258.630615,481.448120 
	C2256.931885,481.241394 2255.628174,480.246613 2254.269287,480.164490 
	C2238.128906,479.188782 2223.610107,473.381927 2211.104248,463.642609 
	C2198.398682,453.747406 2185.973389,443.255066 2174.765137,431.722076 
	C2149.711914,405.943085 2125.417969,379.423126 2100.972656,353.058563 
	C2092.162354,343.556183 2083.804199,333.634521 2075.053467,323.692657 
	C2076.665771,321.900818 2077.812988,320.500061 2079.088135,319.227264 
	C2105.376221,292.984528 2131.517090,266.590973 2158.045898,240.593491 
	C2171.826660,227.088699 2186.987061,215.397141 2206.644043,211.587341 
	C2211.192627,210.705750 2215.908691,210.692032 2220.461182,209.823868 
	C2221.787109,209.570984 2223.756836,207.715164 2223.725830,206.643616 
	C2223.690674,205.432526 2221.913818,203.949677 2220.554932,203.204025 
	C2219.516357,202.634216 2217.947510,202.967377 2216.617432,203.002396 
	C2204.469971,203.321945 2192.322754,203.952225 2180.176514,203.926819 
	C2165.023438,203.895142 2149.872314,203.213608 2134.718750,203.133911 
	C2132.749023,203.123550 2130.769531,205.024963 2128.794434,206.040863 
	C2130.269775,207.486496 2131.498047,209.507065 2133.267822,210.266891 
	C2138.034424,212.313370 2139.894287,215.010880 2138.238037,219.970947 
	C2137.150391,223.227112 2135.564209,226.502640 2133.468506,229.200119 
	C2127.956299,236.294983 2122.384521,243.399811 2116.229980,249.929337 
	C2092.362793,275.250519 2068.262451,300.352020 2044.234009,325.521332 
	C2043.260376,326.541016 2042.138428,327.419128 2040.315552,329.053802 
	C2040.174072,326.473236 2040.018555,324.907867 2040.014038,323.342072 
	C2039.989990,315.010376 2039.921509,306.677612 2040.020020,298.347015 
	C2040.286011,275.867065 2040.492432,253.384995 2040.990967,230.909714 
	C2041.296997,217.113602 2045.511841,212.645340 2059.122803,210.654404 
	C2061.420898,210.318268 2063.852051,210.542786 2066.035645,209.888138 
	C2067.669678,209.398224 2069.004883,207.911118 2070.473145,206.867935 
	C2069.029053,205.610291 2067.694336,203.460342 2066.119385,203.266953 
	C2061.849365,202.742661 2057.477051,203.014801 2053.145752,203.030838 
	C2032.838013,203.105988 2012.530151,203.244156 1992.222412,203.271378 
	C1981.893311,203.285217 1971.560425,202.954361 1961.237915,203.177002 
	C1959.485352,203.214798 1956.530640,205.050049 1956.289795,206.431366 
	C1955.664795,210.015549 1958.940796,209.824066 1961.407349,209.997055 
	C1965.556519,210.288055 1969.724121,210.399292 1973.854980,210.852036 
	C1987.015259,212.294403 1992.514160,218.023300 1992.972778,231.222702 
	C1993.487305,246.032944 1993.967529,260.855255 1993.942261,275.671417 
	C1993.852295,328.482208 1993.714722,381.294373 1993.174927,434.101715 
	C1993.059814,445.353729 1991.490967,456.629883 1989.990601,467.814209 
	C1989.078857,474.611450 1984.869385,478.824768 1977.536987,479.204193 
	C1973.391968,479.418671 1969.225586,479.652374 1965.138916,480.312500 
	C1963.810547,480.527069 1962.704712,482.119904 1961.497070,483.082336 
	C1962.600342,484.342255 1963.480591,486.208740 1964.860596,486.716309 
	C1966.806152,487.431763 1969.122070,487.268890 1971.278809,487.260620 
	C1995.083008,487.169495 2018.886841,486.990326 2042.691040,486.935089 
	C2052.351807,486.912689 2062.019287,487.353271 2071.668945,487.074249 
	C2073.779297,487.013214 2077.429932,484.960205 2077.589844,483.516815 
	C2077.996338,479.842834 2074.463623,480.237488 2071.818115,480.073303 
	C2067.499512,479.805237 2063.190430,479.392639 2058.875000,479.070465 
	C2048.335938,478.283691 2043.137817,473.721466 2041.955444,463.096008 
	C2040.982056,454.349335 2040.435791,445.516663 2040.354614,436.716064 
	C2040.080933,407.061615 2040.094971,377.404419 2040.020996,347.748260 
	C2040.018066,346.548065 2040.240356,345.347290 2040.394775,343.767426 
	C2041.262451,344.347931 2041.728027,344.531311 2042.012573,344.867767 
	C2065.656982,372.838501 2089.093994,400.987366 2112.991943,428.739471 
	C2126.886963,444.875214 2140.894043,460.970490 2158.102051,473.882202 
	C2169.291016,482.277771 2181.766846,486.661224 2195.623535,486.899628 
	C2213.779541,487.211975 2231.942139,487.267639 2250.100830,487.166351 
	C2253.071289,487.149780 2256.033691,485.756836 2259.000000,485.000031 
M1557.180176,291.296661 
	C1545.004272,251.964050 1519.476807,224.942596 1481.355835,209.908463 
	C1447.471069,196.544830 1412.344727,194.798645 1376.765747,200.660568 
	C1344.958496,205.901031 1316.800903,219.153519 1295.292847,243.546097 
	C1258.156616,285.662933 1248.089355,334.715088 1262.728882,388.370789 
	C1274.796143,432.599243 1302.145752,464.626038 1345.301636,481.491730 
	C1379.281738,494.771515 1414.543335,496.085114 1449.847168,487.752991 
	C1493.769531,477.386810 1526.998169,452.368378 1547.117188,411.606110 
	C1566.035400,373.277008 1568.497803,333.154175 1557.180176,291.296661 
M901.876404,447.411591 
	C901.876404,373.160339 901.876404,298.909058 901.876404,224.377350 
	C920.125244,224.910095 938.778931,224.917557 957.338257,226.244904 
	C965.446350,226.824783 973.620667,229.428467 981.287109,232.361862 
	C988.221741,235.015274 992.229065,240.827347 992.189575,248.768845 
	C992.182190,250.252655 992.177979,251.936462 992.835693,253.175873 
	C993.780334,254.955963 995.333923,256.412903 996.627563,258.007782 
	C997.814697,256.322449 999.830200,254.731537 1000.035034,252.934250 
	C1000.673889,247.329361 1000.674255,241.647736 1000.836731,235.993408 
	C1001.123413,226.014816 1001.620117,216.030914 1001.493286,206.056061 
	C1001.418640,200.188614 1000.467468,200.066162 994.761414,200.843796 
	C985.546631,202.099625 976.287354,203.753342 967.031677,203.854965 
	C932.213318,204.237213 897.388062,204.202942 862.566772,204.044861 
	C837.085144,203.929199 811.598633,203.612015 786.129639,202.862961 
	C779.099365,202.656219 771.952820,201.170273 765.170532,199.200699 
	C758.066345,197.137665 756.768066,197.163498 755.156067,204.505371 
	C752.912476,214.723999 750.911072,225.000717 749.055237,235.297485 
	C748.145386,240.345596 747.605042,245.485138 747.342346,250.606155 
	C747.283386,251.755600 749.049988,253.941879 750.037415,253.978043 
	C751.474854,254.030670 753.160339,252.776794 754.366516,251.672119 
	C755.116028,250.985718 755.194458,249.551697 755.541321,248.442993 
	C759.866577,234.616074 768.975891,227.164917 783.738220,226.785065 
	C794.215820,226.515472 804.677856,225.592972 815.155396,225.381836 
	C827.717346,225.128723 840.288269,225.322052 853.133972,225.322052 
	C853.169434,225.814133 853.279663,226.623215 853.278687,227.432144 
	C853.191589,297.908752 853.202209,368.385864 852.874451,438.861389 
	C852.830627,448.286804 851.467285,457.766541 849.990295,467.106537 
	C848.702148,475.252258 845.244019,478.037445 837.062561,479.173859 
	C833.612305,479.653076 830.053528,479.500183 826.663574,480.207489 
	C824.710815,480.614929 822.996765,482.166870 821.175293,483.203644 
	C822.989136,484.508179 824.665283,486.597931 826.646912,486.945221 
	C830.201660,487.568115 833.940369,487.180817 837.601624,487.150543 
	C855.566833,487.001923 873.531982,486.703461 891.497009,486.709534 
	C906.151794,486.714508 920.806091,487.146393 935.461487,487.214691 
	C938.316833,487.227997 942.284302,487.463196 942.207031,483.357788 
	C942.185730,482.226685 938.011658,480.562744 935.586548,480.205505 
	C929.017517,479.237793 922.342529,479.010834 915.751160,478.166077 
	C909.849976,477.409729 905.932312,473.766968 904.741089,468.068909 
	C903.386536,461.589813 902.808044,454.948456 901.876404,447.411591 
M1070.092041,394.500000 
	C1069.958496,408.659973 1070.241333,422.840179 1069.555786,436.973389 
	C1069.034302,447.728668 1067.590088,458.471344 1065.959106,469.128204 
	C1065.036499,475.157227 1060.916138,478.667358 1054.559082,479.111633 
	C1050.582520,479.389557 1046.558716,479.495575 1042.667480,480.251556 
	C1040.970581,480.581238 1039.552734,482.346924 1038.008179,483.460480 
	C1039.540894,484.653900 1040.913208,486.296478 1042.650513,486.916443 
	C1044.447266,487.557648 1046.601074,487.319122 1048.593872,487.270721 
	C1064.905762,486.874573 1081.220459,485.971283 1097.526245,486.119598 
	C1118.833374,486.313354 1140.129395,487.537842 1161.437256,487.924316 
	C1178.922485,488.241486 1196.418945,488.063873 1213.909058,487.927338 
	C1218.970703,487.887878 1224.232544,486.518158 1225.157959,480.804108 
	C1227.731079,464.915588 1229.740723,448.931580 1231.642578,432.945953 
	C1231.812134,431.520966 1229.582153,429.810425 1228.466553,428.232574 
	C1227.085449,429.657715 1225.556885,430.974335 1224.391113,432.557983 
	C1223.879517,433.252808 1224.143433,434.497681 1223.995361,435.483795 
	C1221.315430,453.334564 1210.503418,464.528503 1193.397827,465.884338 
	C1181.637207,466.816528 1169.769653,466.923645 1157.968750,466.633331 
	C1150.371704,466.446442 1142.714478,465.327972 1135.255981,463.793060 
	C1127.284790,462.152679 1121.798462,457.212463 1120.678711,448.713135 
	C1119.593628,440.478760 1118.148926,432.200867 1118.103027,423.935211 
	C1117.793457,368.105286 1117.751709,312.273499 1117.784302,256.442413 
	C1117.790161,246.461044 1118.283936,236.460526 1119.030762,226.504745 
	C1119.712524,217.418472 1124.321411,212.437500 1132.670166,211.150223 
	C1136.938477,210.492111 1141.293213,210.408173 1145.602417,209.997223 
	C1148.677490,209.703949 1153.565674,211.217316 1153.392822,206.403229 
	C1153.230835,201.896378 1148.382446,203.007065 1145.272827,203.043152 
	C1125.782959,203.269302 1106.295532,203.882233 1086.806274,203.921341 
	C1071.821777,203.951416 1056.836670,203.280029 1041.849976,203.034927 
	C1038.980225,202.987976 1034.838013,202.328400 1034.716553,206.453644 
	C1034.589478,210.772537 1038.758911,209.697479 1041.600586,210.030823 
	C1046.544312,210.610764 1051.551025,210.986526 1056.384644,212.090088 
	C1062.726196,213.537903 1067.218018,217.485046 1068.143555,224.184357 
	C1069.072998,230.913956 1069.892822,237.724625 1069.916992,244.502777 
	C1070.094360,294.168091 1070.059692,343.834167 1070.092041,394.500000 
z"/>
<path fill="#FFFFFF" opacity="1.000000" stroke="none" 
	d="
M0.999999,286.000000 
	C1.000000,191.031967 1.000000,96.063927 1.000000,1.000000 
	C321.360168,1.000000 641.720398,1.000000 962.548584,1.232128 
	C963.016541,1.464256 962.933411,1.921304 962.470703,1.950075 
	C928.956848,3.928335 895.811829,4.904780 862.879089,8.081080 
	C824.341614,11.797941 785.830994,16.429338 747.591614,22.458277 
	C683.080933,32.629223 619.806152,48.245430 558.165344,70.065338 
	C505.399933,88.743477 454.606140,111.464241 408.597595,143.845673 
	C391.679504,155.752838 375.657318,168.724350 361.479340,183.983688 
	C341.680603,158.679062 316.763641,140.892181 287.005188,129.975098 
	C242.779144,113.750496 197.364548,111.364548 151.354080,119.982430 
	C74.789948,134.323105 19.644163,189.256531 4.905234,265.214996 
	C3.562410,272.135376 2.299838,279.071289 0.999999,286.000000 
z"/>
<path fill="#E48668" opacity="1.000000" stroke="none" 
	d="
M1062.468628,643.000000 
	C1055.647583,642.390198 1049.307861,641.504944 1042.940796,641.214844 
	C998.517761,639.191101 954.295532,634.917297 910.271912,628.805908 
	C834.356323,618.267273 759.628662,602.270264 686.594238,578.777161 
	C683.300720,577.717712 680.000488,576.679138 676.923401,574.704590 
	C681.216492,575.645325 685.525757,576.518127 689.800110,577.537476 
	C725.597046,586.074219 761.826965,591.971680 798.373108,596.281616 
	C856.739136,603.164795 915.305725,604.582214 973.930481,602.622986 
	C1005.668823,601.562256 1037.391968,599.007019 1069.026978,596.095032 
	C1155.464233,588.138428 1240.593872,572.363708 1324.977905,552.251953 
	C1389.644653,536.839478 1453.398438,518.484558 1515.280029,494.031555 
	C1555.921387,477.971741 1595.286987,459.284058 1632.964478,435.973541 
	C1633.967529,436.403381 1634.354492,436.731171 1634.651245,437.126556 
	C1652.628052,461.078735 1676.315796,476.654755 1704.781006,485.480255 
	C1721.281738,490.596252 1738.302856,491.671204 1755.322144,493.017761 
	C1745.839111,499.718323 1736.641357,506.873383 1726.821777,513.037842 
	C1691.261841,535.361267 1652.891479,551.790466 1613.495239,565.926086 
	C1551.842529,588.047485 1488.547241,604.147949 1424.177124,615.826782 
	C1388.056274,622.380371 1351.700928,627.835632 1315.289429,632.530762 
	C1287.929443,636.058777 1260.322266,637.721558 1232.803833,639.950317 
	C1219.381958,641.037354 1205.911133,641.520935 1192.231201,642.638794 
	C1148.979126,643.000000 1105.958130,643.000000 1062.468628,643.000000 
z"/>
<path fill="#37464D" opacity="1.000000" stroke="none" 
	d="
M0.999999,286.468658 
	C2.299838,279.071289 3.562410,272.135376 4.905234,265.214996 
	C19.644163,189.256531 74.789948,134.323105 151.354080,119.982430 
	C197.364548,111.364548 242.779144,113.750496 287.005188,129.975098 
	C316.763641,140.892181 341.680603,158.679062 361.586792,184.315475 
	C371.754333,198.398392 379.667603,212.961929 385.035889,228.840164 
	C393.990387,255.325546 397.085999,282.500183 395.259125,310.400909 
	C393.846832,331.969727 389.813782,352.902679 381.996643,373.028748 
	C378.637665,381.676819 374.507385,390.025269 370.727478,398.509857 
	C363.924622,408.139465 357.772003,418.316711 350.204285,427.302155 
	C320.335541,462.766388 281.766663,483.255310 236.362411,490.882080 
	C196.326385,497.607056 156.650650,495.776215 118.346420,481.510345 
	C61.907780,460.490540 26.522898,419.528076 9.297529,362.513000 
	C5.575366,350.192810 4.147791,337.179382 1.331648,324.242645 
	C1.000000,311.645782 1.000000,299.291534 0.999999,286.468658 
M320.165802,253.249527 
	C316.291748,242.306610 313.238556,230.985992 308.405914,220.484192 
	C283.487183,166.333313 232.450012,133.035767 171.136414,139.878922 
	C129.718185,144.501617 100.329857,165.775803 83.284813,203.763947 
	C74.127663,224.172394 70.286011,245.867081 68.670486,268.082458 
	C66.154755,302.676666 68.859947,336.715485 81.108597,369.314636 
	C102.847931,427.172821 141.869186,464.370636 205.972198,469.317871 
	C244.623077,472.300812 276.734619,459.086853 299.454132,426.870483 
	C319.228973,398.829681 325.336395,366.466736 327.134521,332.099396 
	C329.074615,305.712311 327.119019,279.664764 320.165802,253.249527 
z"/>
<path fill="#38464D" opacity="1.000000" stroke="none" 
	d="
M2259.000000,484.625031 
	C2256.033691,485.756836 2253.071289,487.149780 2250.100830,487.166351 
	C2231.942139,487.267639 2213.779541,487.211975 2195.623535,486.899628 
	C2181.766846,486.661224 2169.291016,482.277771 2158.102051,473.882202 
	C2140.894043,460.970490 2126.886963,444.875214 2112.991943,428.739471 
	C2089.093994,400.987366 2065.656982,372.838501 2042.012573,344.867767 
	C2041.728027,344.531311 2041.262451,344.347931 2040.394775,343.767426 
	C2040.240356,345.347290 2040.018066,346.548065 2040.020996,347.748260 
	C2040.094971,377.404419 2040.080933,407.061615 2040.354614,436.716064 
	C2040.435791,445.516663 2040.982056,454.349335 2041.955444,463.096008 
	C2043.137817,473.721466 2048.335938,478.283691 2058.875000,479.070465 
	C2063.190430,479.392639 2067.499512,479.805237 2071.818115,480.073303 
	C2074.463623,480.237488 2077.996338,479.842834 2077.589844,483.516815 
	C2077.429932,484.960205 2073.779297,487.013214 2071.668945,487.074249 
	C2062.019287,487.353271 2052.351807,486.912689 2042.691040,486.935089 
	C2018.886841,486.990326 1995.083008,487.169495 1971.278809,487.260620 
	C1969.122070,487.268890 1966.806152,487.431763 1964.860596,486.716309 
	C1963.480591,486.208740 1962.600342,484.342255 1961.497070,483.082336 
	C1962.704712,482.119904 1963.810547,480.527069 1965.138916,480.312500 
	C1969.225586,479.652374 1973.391968,479.418671 1977.536987,479.204193 
	C1984.869385,478.824768 1989.078857,474.611450 1989.990601,467.814209 
	C1991.490967,456.629883 1993.059814,445.353729 1993.174927,434.101715 
	C1993.714722,381.294373 1993.852295,328.482208 1993.942261,275.671417 
	C1993.967529,260.855255 1993.487305,246.032944 1992.972778,231.222702 
	C1992.514160,218.023300 1987.015259,212.294403 1973.854980,210.852036 
	C1969.724121,210.399292 1965.556519,210.288055 1961.407349,209.997055 
	C1958.940796,209.824066 1955.664795,210.015549 1956.289795,206.431366 
	C1956.530640,205.050049 1959.485352,203.214798 1961.237915,203.177002 
	C1971.560425,202.954361 1981.893311,203.285217 1992.222412,203.271378 
	C2012.530151,203.244156 2032.838013,203.105988 2053.145752,203.030838 
	C2057.477051,203.014801 2061.849365,202.742661 2066.119385,203.266953 
	C2067.694336,203.460342 2069.029053,205.610291 2070.473145,206.867935 
	C2069.004883,207.911118 2067.669678,209.398224 2066.035645,209.888138 
	C2063.852051,210.542786 2061.420898,210.318268 2059.122803,210.654404 
	C2045.511841,212.645340 2041.296997,217.113602 2040.990967,230.909714 
	C2040.492432,253.384995 2040.286011,275.867065 2040.020020,298.347015 
	C2039.921509,306.677612 2039.989990,315.010376 2040.014038,323.342072 
	C2040.018555,324.907867 2040.174072,326.473236 2040.315552,329.053802 
	C2042.138428,327.419128 2043.260376,326.541016 2044.234009,325.521332 
	C2068.262451,300.352020 2092.362793,275.250519 2116.229980,249.929337 
	C2122.384521,243.399811 2127.956299,236.294983 2133.468506,229.200119 
	C2135.564209,226.502640 2137.150391,223.227112 2138.238037,219.970947 
	C2139.894287,215.010880 2138.034424,212.313370 2133.267822,210.266891 
	C2131.498047,209.507065 2130.269775,207.486496 2128.794434,206.040863 
	C2130.769531,205.024963 2132.749023,203.123550 2134.718750,203.133911 
	C2149.872314,203.213608 2165.023438,203.895142 2180.176514,203.926819 
	C2192.322754,203.952225 2204.469971,203.321945 2216.617432,203.002396 
	C2217.947510,202.967377 2219.516357,202.634216 2220.554932,203.204025 
	C2221.913818,203.949677 2223.690674,205.432526 2223.725830,206.643616 
	C2223.756836,207.715164 2221.787109,209.570984 2220.461182,209.823868 
	C2215.908691,210.692032 2211.192627,210.705750 2206.644043,211.587341 
	C2186.987061,215.397141 2171.826660,227.088699 2158.045898,240.593491 
	C2131.517090,266.590973 2105.376221,292.984528 2079.088135,319.227264 
	C2077.812988,320.500061 2076.665771,321.900818 2075.053467,323.692657 
	C2083.804199,333.634521 2092.162354,343.556183 2100.972656,353.058563 
	C2125.417969,379.423126 2149.711914,405.943085 2174.765137,431.722076 
	C2185.973389,443.255066 2198.398682,453.747406 2211.104248,463.642609 
	C2223.610107,473.381927 2238.128906,479.188782 2254.269287,480.164490 
	C2255.628174,480.246613 2256.931885,481.241394 2258.630615,481.906067 
	C2259.000000,482.750000 2259.000000,483.500000 2259.000000,484.625031 
z"/>
<path fill="#F2C4AF" opacity="1.000000" stroke="none" 
	d="
M962.933411,1.921304 
	C962.933411,1.921304 963.016541,1.464256 963.008301,1.232128 
	C995.020935,1.000000 1027.041870,1.000000 1059.531372,1.000000 
	C1060.000000,1.000000 1059.975220,1.468232 1059.547607,1.755311 
	C1027.057861,2.002028 994.995667,1.961666 962.933411,1.921304 
z"/>
<path fill="#E48668" opacity="1.000000" stroke="none" 
	d="
M962.470703,1.950075 
	C994.995667,1.961666 1027.057861,2.002028 1059.591064,1.985713 
	C1202.179199,6.305466 1341.254883,27.524765 1475.629395,77.374741 
	C1476.035278,78.116066 1476.056519,78.389488 1476.077759,78.662918 
	C1442.901245,68.875954 1409.305298,60.795464 1375.117188,55.562912 
	C1350.309937,51.766106 1325.387695,48.567184 1300.427246,45.957077 
	C1257.327148,41.450108 1214.037598,39.981789 1170.744995,41.332520 
	C1138.488159,42.338924 1106.239868,44.374821 1074.061523,46.894981 
	C1049.044189,48.854290 1024.028564,51.515129 999.213989,55.216942 
	C964.700439,60.365627 930.302795,66.385902 895.987122,72.743309 
	C845.759155,82.048653 796.167053,94.198959 747.032837,108.139130 
	C686.907349,125.197716 627.948669,145.572586 571.663269,172.959366 
	C553.135010,181.974670 535.399536,192.619202 516.684143,202.883545 
	C500.954559,203.278778 485.842194,203.358459 470.730133,203.323929 
	C458.752991,203.296555 446.776245,203.115997 434.799133,203.034088 
	C432.118347,203.015747 429.209106,203.649216 429.723663,206.857040 
	C429.931213,208.150848 433.011963,209.592819 434.946564,209.880005 
	C439.692505,210.584518 444.558716,210.442291 449.328644,211.029709 
	C458.386322,212.145233 463.967163,216.743011 465.513336,224.785767 
	C466.446869,229.641769 466.475739,234.671677 466.911102,239.623444 
	C462.729431,243.075317 458.318939,246.287277 454.405029,250.019913 
	C435.824127,267.740204 419.918457,287.443787 409.935516,311.406738 
	C395.444458,346.190979 398.447205,379.943817 416.143921,412.730713 
	C431.122040,440.480713 453.046722,462.152100 477.137817,482.362000 
	C477.010406,482.981476 476.893768,483.117554 476.777161,483.253601 
	C460.209106,471.921814 443.325317,461.020142 427.152893,449.149384 
	C406.916077,434.295319 388.086212,417.725830 370.910522,398.837433 
	C374.507385,390.025269 378.637665,381.676819 381.996643,373.028748 
	C389.813782,352.902679 393.846832,331.969727 395.259125,310.400909 
	C397.085999,282.500183 393.990387,255.325546 385.035889,228.840164 
	C379.667603,212.961929 371.754333,198.398392 361.870605,184.487991 
	C375.657318,168.724350 391.679504,155.752838 408.597595,143.845673 
	C454.606140,111.464241 505.399933,88.743477 558.165344,70.065338 
	C619.806152,48.245430 683.080933,32.629223 747.591614,22.458277 
	C785.830994,16.429338 824.341614,11.797941 862.879089,8.081080 
	C895.811829,4.904780 928.956848,3.928335 962.470703,1.950075 
z"/>
<path fill="#38464D" opacity="1.000000" stroke="none" 
	d="
M1557.322998,291.671509 
	C1568.497803,333.154175 1566.035400,373.277008 1547.117188,411.606110 
	C1526.998169,452.368378 1493.769531,477.386810 1449.847168,487.752991 
	C1414.543335,496.085114 1379.281738,494.771515 1345.301636,481.491730 
	C1302.145752,464.626038 1274.796143,432.599243 1262.728882,388.370789 
	C1248.089355,334.715088 1258.156616,285.662933 1295.292847,243.546097 
	C1316.800903,219.153519 1344.958496,205.901031 1376.765747,200.660568 
	C1412.344727,194.798645 1447.471069,196.544830 1481.355835,209.908463 
	C1519.476807,224.942596 1545.004272,251.964050 1557.322998,291.671509 
M1489.150024,439.605988 
	C1492.889893,432.387665 1497.189819,425.398529 1500.256348,417.904694 
	C1507.262939,400.782288 1509.587402,382.663422 1510.455688,364.291931 
	C1511.702637,337.915405 1509.312744,312.010345 1499.197021,287.411957 
	C1482.795288,247.527618 1454.943604,221.244904 1410.504150,216.729263 
	C1368.456177,212.456589 1331.176880,231.423203 1317.157227,276.283813 
	C1304.037598,318.264557 1305.054077,360.481232 1321.598389,401.398041 
	C1337.651733,441.101044 1366.091187,466.836212 1409.871338,472.413666 
	C1442.015869,476.508728 1469.046753,467.043243 1489.150024,439.605988 
z"/>
<path fill="#38464D" opacity="1.000000" stroke="none" 
	d="
M1755.746338,493.024841 
	C1738.302856,491.671204 1721.281738,490.596252 1704.781006,485.480255 
	C1676.315796,476.654755 1652.628052,461.078735 1634.651245,437.126556 
	C1634.354492,436.731171 1633.967529,436.403381 1633.310425,435.873718 
	C1625.173218,423.313721 1617.668091,410.733032 1613.292236,396.635437 
	C1595.912476,340.642426 1604.204590,289.421204 1642.716309,244.348236 
	C1657.962891,226.504135 1677.635132,214.746506 1700.201660,206.992004 
	C1700.672852,206.962433 1700.970215,206.692200 1700.970215,206.692200 
	C1700.970215,206.692200 1701.279785,206.483917 1701.768799,206.324524 
	C1704.309326,205.378693 1706.360718,204.592255 1708.412109,203.805817 
	C1726.779297,199.769470 1745.291260,197.252594 1764.171875,197.666992 
	C1794.059692,198.322952 1822.731567,203.853455 1848.793945,219.157349 
	C1883.809326,239.718475 1903.455566,270.951172 1909.774536,310.567017 
	C1915.221313,344.713959 1911.635864,378.014740 1896.449341,409.403961 
	C1875.359009,452.995728 1840.232788,478.928558 1793.217896,488.751526 
	C1781.099731,491.283417 1768.531860,491.663391 1755.746338,493.024841 
M1672.697754,407.979919 
	C1678.124146,420.853333 1685.969482,432.170166 1695.747925,442.015106 
	C1718.929443,465.354675 1747.239868,475.132111 1780.731079,472.968933 
	C1815.167603,468.615234 1836.935059,448.762726 1848.946533,417.075775 
	C1855.014282,401.068726 1857.480103,384.346100 1858.526489,367.349213 
	C1860.414795,336.680206 1857.222046,306.751709 1843.655151,278.821411 
	C1825.580322,241.610809 1796.618164,219.063080 1754.397095,216.386398 
	C1745.497681,215.822205 1736.424927,217.990677 1726.668091,218.760620 
	C1722.911621,219.965179 1719.155029,221.169739 1714.774414,222.312241 
	C1713.670410,222.633652 1712.517700,222.842087 1711.469482,223.293106 
	C1689.549194,232.723679 1675.090088,249.319824 1667.043457,271.336304 
	C1654.596924,305.391052 1653.983765,340.355469 1661.716797,375.427490 
	C1664.115845,386.307587 1668.941895,396.652588 1672.697754,407.979919 
z"/>
<path fill="#38474E" opacity="1.000000" stroke="none" 
	d="
M466.953247,240.128281 
	C466.475739,234.671677 466.446869,229.641769 465.513336,224.785767 
	C463.967163,216.743011 458.386322,212.145233 449.328644,211.029709 
	C444.558716,210.442291 439.692505,210.584518 434.946564,209.880005 
	C433.011963,209.592819 429.931213,208.150848 429.723663,206.857040 
	C429.209106,203.649216 432.118347,203.015747 434.799133,203.034088 
	C446.776245,203.115997 458.752991,203.296555 470.730133,203.323929 
	C485.842194,203.358459 500.954559,203.278778 516.473145,203.159592 
	C525.039124,203.053879 533.199280,202.984207 541.358276,203.050537 
	C543.974487,203.071808 547.482056,202.921509 546.961121,206.719025 
	C546.779663,208.041962 543.492188,209.442429 541.424072,209.892654 
	C537.709045,210.701416 533.794128,210.561157 530.050781,211.277359 
	C521.863525,212.843842 517.572998,218.383240 516.992676,228.343018 
	C516.440674,237.817444 515.995361,247.313309 515.974548,256.800781 
	C515.886963,296.800232 515.710388,336.802795 516.120789,376.798523 
	C516.303711,394.622467 518.429749,412.310455 525.000916,429.167297 
	C534.867859,454.479004 559.192993,471.379913 586.348633,472.149567 
	C603.635742,472.639557 619.770325,469.320465 634.294067,459.595947 
	C653.192078,446.942596 660.638733,427.810760 662.862549,406.459351 
	C664.566284,390.101135 665.078918,373.566345 665.179626,357.104279 
	C665.417236,318.276611 665.125000,279.445312 664.952637,240.615921 
	C664.932007,235.965607 664.540527,231.290512 663.948303,226.674728 
	C662.771545,217.502457 657.282593,212.387939 647.241211,211.026077 
	C643.123779,210.467682 638.952271,210.278122 634.798950,210.025375 
	C632.149536,209.864120 628.684570,210.335342 628.631165,206.695129 
	C628.572510,202.694824 632.283752,203.001373 635.038635,203.035751 
	C646.697815,203.181183 658.355591,203.679688 670.013000,203.651810 
	C686.996643,203.611206 703.979431,203.222885 720.962769,203.000793 
	C722.794067,202.976837 724.781006,202.644821 726.415283,203.233856 
	C728.008728,203.808182 729.242371,205.380707 730.634033,206.514969 
	C729.261536,207.660904 728.026489,209.515945 726.489624,209.813782 
	C722.595703,210.568375 718.543518,210.457184 714.595642,210.993515 
	C705.470886,212.233124 700.675842,216.724121 700.002991,225.870361 
	C699.063477,238.642502 698.450378,251.463623 698.361023,264.268433 
	C698.137695,296.266876 698.374023,328.268188 698.257507,360.267761 
	C698.184570,380.291077 696.615601,400.159912 690.987915,419.526123 
	C680.550720,455.442902 656.388855,477.780884 621.152222,487.857910 
	C593.349548,495.808929 564.978455,494.780457 537.337769,486.682434 
	C501.235901,476.105530 479.898712,451.036346 472.311432,414.676056 
	C469.339050,400.431732 467.751099,385.677917 467.516693,371.124237 
	C466.816315,327.635651 467.097473,284.131317 466.953247,240.128281 
z"/>
<path fill="#38474E" opacity="1.000000" stroke="none" 
	d="
M901.884277,447.894592 
	C902.808044,454.948456 903.386536,461.589813 904.741089,468.068909 
	C905.932312,473.766968 909.849976,477.409729 915.751160,478.166077 
	C922.342529,479.010834 929.017517,479.237793 935.586548,480.205505 
	C938.011658,480.562744 942.185730,482.226685 942.207031,483.357788 
	C942.284302,487.463196 938.316833,487.227997 935.461487,487.214691 
	C920.806091,487.146393 906.151794,486.714508 891.497009,486.709534 
	C873.531982,486.703461 855.566833,487.001923 837.601624,487.150543 
	C833.940369,487.180817 830.201660,487.568115 826.646912,486.945221 
	C824.665283,486.597931 822.989136,484.508179 821.175293,483.203644 
	C822.996765,482.166870 824.710815,480.614929 826.663574,480.207489 
	C830.053528,479.500183 833.612305,479.653076 837.062561,479.173859 
	C845.244019,478.037445 848.702148,475.252258 849.990295,467.106537 
	C851.467285,457.766541 852.830627,448.286804 852.874451,438.861389 
	C853.202209,368.385864 853.191589,297.908752 853.278687,227.432144 
	C853.279663,226.623215 853.169434,225.814133 853.133972,225.322052 
	C840.288269,225.322052 827.717346,225.128723 815.155396,225.381836 
	C804.677856,225.592972 794.215820,226.515472 783.738220,226.785065 
	C768.975891,227.164917 759.866577,234.616074 755.541321,248.442993 
	C755.194458,249.551697 755.116028,250.985718 754.366516,251.672119 
	C753.160339,252.776794 751.474854,254.030670 750.037415,253.978043 
	C749.049988,253.941879 747.283386,251.755600 747.342346,250.606155 
	C747.605042,245.485138 748.145386,240.345596 749.055237,235.297485 
	C750.911072,225.000717 752.912476,214.723999 755.156067,204.505371 
	C756.768066,197.163498 758.066345,197.137665 765.170532,199.200699 
	C771.952820,201.170273 779.099365,202.656219 786.129639,202.862961 
	C811.598633,203.612015 837.085144,203.929199 862.566772,204.044861 
	C897.388062,204.202942 932.213318,204.237213 967.031677,203.854965 
	C976.287354,203.753342 985.546631,202.099625 994.761414,200.843796 
	C1000.467468,200.066162 1001.418640,200.188614 1001.493286,206.056061 
	C1001.620117,216.030914 1001.123413,226.014816 1000.836731,235.993408 
	C1000.674255,241.647736 1000.673889,247.329361 1000.035034,252.934250 
	C999.830200,254.731537 997.814697,256.322449 996.627563,258.007782 
	C995.333923,256.412903 993.780334,254.955963 992.835693,253.175873 
	C992.177979,251.936462 992.182190,250.252655 992.189575,248.768845 
	C992.229065,240.827347 988.221741,235.015274 981.287109,232.361862 
	C973.620667,229.428467 965.446350,226.824783 957.338257,226.244904 
	C938.778931,224.917557 920.125244,224.910095 901.876404,224.377350 
	C901.876404,298.909058 901.876404,373.160339 901.884277,447.894592 
z"/>
<path fill="#38474E" opacity="1.000000" stroke="none" 
	d="
M1070.092041,394.000000 
	C1070.059692,343.834167 1070.094360,294.168091 1069.916992,244.502777 
	C1069.892822,237.724625 1069.072998,230.913956 1068.143555,224.184357 
	C1067.218018,217.485046 1062.726196,213.537903 1056.384644,212.090088 
	C1051.551025,210.986526 1046.544312,210.610764 1041.600586,210.030823 
	C1038.758911,209.697479 1034.589478,210.772537 1034.716553,206.453644 
	C1034.838013,202.328400 1038.980225,202.987976 1041.849976,203.034927 
	C1056.836670,203.280029 1071.821777,203.951416 1086.806274,203.921341 
	C1106.295532,203.882233 1125.782959,203.269302 1145.272827,203.043152 
	C1148.382446,203.007065 1153.230835,201.896378 1153.392822,206.403229 
	C1153.565674,211.217316 1148.677490,209.703949 1145.602417,209.997223 
	C1141.293213,210.408173 1136.938477,210.492111 1132.670166,211.150223 
	C1124.321411,212.437500 1119.712524,217.418472 1119.030762,226.504745 
	C1118.283936,236.460526 1117.790161,246.461044 1117.784302,256.442413 
	C1117.751709,312.273499 1117.793457,368.105286 1118.103027,423.935211 
	C1118.148926,432.200867 1119.593628,440.478760 1120.678711,448.713135 
	C1121.798462,457.212463 1127.284790,462.152679 1135.255981,463.793060 
	C1142.714478,465.327972 1150.371704,466.446442 1157.968750,466.633331 
	C1169.769653,466.923645 1181.637207,466.816528 1193.397827,465.884338 
	C1210.503418,464.528503 1221.315430,453.334564 1223.995361,435.483795 
	C1224.143433,434.497681 1223.879517,433.252808 1224.391113,432.557983 
	C1225.556885,430.974335 1227.085449,429.657715 1228.466553,428.232544 
	C1229.582153,429.810425 1231.812134,431.520966 1231.642578,432.945953 
	C1229.740723,448.931580 1227.731079,464.915588 1225.157959,480.804108 
	C1224.232544,486.518158 1218.970703,487.887878 1213.909058,487.927338 
	C1196.418945,488.063873 1178.922485,488.241486 1161.437256,487.924316 
	C1140.129395,487.537842 1118.833374,486.313354 1097.526245,486.119598 
	C1081.220459,485.971283 1064.905762,486.874573 1048.593872,487.270721 
	C1046.601074,487.319122 1044.447266,487.557648 1042.650513,486.916443 
	C1040.913208,486.296478 1039.540894,484.653900 1038.008179,483.460449 
	C1039.552734,482.346924 1040.970581,480.581238 1042.667480,480.251556 
	C1046.558716,479.495575 1050.582520,479.389557 1054.559082,479.111633 
	C1060.916138,478.667358 1065.036499,475.157227 1065.959106,469.128204 
	C1067.590088,458.471344 1069.034302,447.728668 1069.555786,436.973389 
	C1070.241333,422.840179 1069.958496,408.659973 1070.092041,394.000000 
z"/>
<path fill="#E49075" opacity="1.000000" stroke="none" 
	d="
M1708.312500,203.465500 
	C1706.360718,204.592255 1704.309326,205.378693 1701.901489,206.193329 
	C1694.003540,198.158157 1686.462036,190.094803 1678.920654,182.031464 
	C1679.082886,181.748184 1679.245117,181.464905 1679.407349,181.181625 
	C1689.009155,188.496140 1698.610962,195.810669 1708.312500,203.465500 
z"/>
<path fill="#ECAC98" opacity="1.000000" stroke="none" 
	d="
M1476.345459,78.834969 
	C1476.056519,78.389488 1476.035278,78.116066 1476.001953,77.431488 
	C1481.753174,78.993111 1487.516479,80.965889 1493.279907,82.938660 
	C1493.145752,83.358887 1493.011597,83.779106 1492.877441,84.199326 
	C1487.456055,82.468559 1482.034546,80.737785 1476.345459,78.834969 
z"/>
<path fill="#E48668" opacity="1.000000" stroke="none" 
	d="
M477.306580,482.645264 
	C477.812897,482.856354 478.139648,483.267517 478.466400,483.678711 
	C478.023315,483.685608 477.580261,483.692535 476.957153,483.476532 
	C476.893768,483.117554 477.010406,482.981476 477.306580,482.645264 
z"/>
<path fill="#E49075" opacity="1.000000" stroke="none" 
	d="
M1700.884155,206.601379 
	C1700.970215,206.692200 1700.672852,206.962433 1700.591553,206.900009 
	C1700.510254,206.837585 1700.798096,206.510544 1700.884155,206.601379 
z"/>
<path fill="#FFFFFF" opacity="1.000000" stroke="none" 
	d="
M326.940216,332.941437 
	C325.336395,366.466736 319.228973,398.829681 299.454132,426.870483 
	C276.734619,459.086853 244.623077,472.300812 205.972198,469.317871 
	C141.869186,464.370636 102.847931,427.172821 81.108597,369.314636 
	C68.859947,336.715485 66.154755,302.676666 68.670486,268.082458 
	C70.286011,245.867081 74.127663,224.172394 83.284813,203.763947 
	C100.329857,165.775803 129.718185,144.501617 171.136414,139.878922 
	C232.450012,133.035767 283.487183,166.333313 308.405914,220.484192 
	C313.238556,230.985992 316.291748,242.306610 320.138794,254.033966 
	C316.886139,267.963226 316.016479,281.334595 317.141083,294.752350 
	C318.249695,307.979431 321.143799,320.861694 326.940216,332.941437 
z"/>
<path fill="#E1866A" opacity="1.000000" stroke="none" 
	d="
M327.037354,332.520416 
	C321.143799,320.861694 318.249695,307.979431 317.141083,294.752350 
	C316.016479,281.334595 316.886139,267.963226 320.221039,254.428467 
	C327.119019,279.664764 329.074615,305.712311 327.037354,332.520416 
z"/>
<path fill="#FEFFFF" opacity="1.000000" stroke="none" 
	d="
M1488.971924,439.918152 
	C1469.046753,467.043243 1442.015869,476.508728 1409.871338,472.413666 
	C1366.091187,466.836212 1337.651733,441.101044 1321.598389,401.398041 
	C1305.054077,360.481232 1304.037598,318.264557 1317.157227,276.283813 
	C1331.176880,231.423203 1368.456177,212.456589 1410.504150,216.729263 
	C1454.943604,221.244904 1482.795288,247.527618 1499.197021,287.411957 
	C1509.312744,312.010345 1511.702637,337.915405 1510.455688,364.291931 
	C1509.587402,382.663422 1507.262939,400.782288 1500.256348,417.904694 
	C1497.189819,425.398529 1492.889893,432.387665 1488.971924,439.918152 
z"/>
<path fill="#E48568" opacity="1.000000" stroke="none" 
	d="
M1779.882324,472.914917 
	C1747.239868,475.132111 1718.929443,465.354675 1695.747925,442.015106 
	C1685.969482,432.170166 1678.124146,420.853333 1672.803223,407.258301 
	C1674.717773,404.827118 1676.473511,403.056427 1678.344971,401.417694 
	C1694.321899,387.427612 1708.513428,371.879211 1719.525635,353.637695 
	C1742.607056,315.403351 1744.784424,276.410767 1723.410767,236.679031 
	C1720.822021,231.866684 1718.073242,227.140396 1715.398560,222.374268 
	C1719.155029,221.169739 1722.911621,219.965179 1727.410645,218.930496 
	C1735.111206,225.283310 1742.268311,231.258194 1748.991821,237.686462 
	C1773.901123,261.501617 1796.239624,287.353485 1811.023315,318.884613 
	C1831.198608,361.914886 1830.222534,403.897491 1803.341553,443.924713 
	C1796.438477,454.203705 1787.750488,463.283966 1779.882324,472.914917 
z"/>
<path fill="#FEFEFD" opacity="1.000000" stroke="none" 
	d="
M1780.306641,472.941925 
	C1787.750488,463.283966 1796.438477,454.203705 1803.341553,443.924713 
	C1830.222534,403.897491 1831.198608,361.914886 1811.023315,318.884613 
	C1796.239624,287.353485 1773.901123,261.501617 1748.991821,237.686462 
	C1742.268311,231.258194 1735.111206,225.283310 1727.792603,219.000183 
	C1736.424927,217.990677 1745.497681,215.822205 1754.397095,216.386398 
	C1796.618164,219.063080 1825.580322,241.610809 1843.655151,278.821411 
	C1857.222046,306.751709 1860.414795,336.680206 1858.526489,367.349213 
	C1857.480103,384.346100 1855.014282,401.068726 1848.946533,417.075775 
	C1836.935059,448.762726 1815.167603,468.615234 1780.306641,472.941925 
z"/>
<path fill="#FEFEFE" opacity="1.000000" stroke="none" 
	d="
M1715.086426,222.343246 
	C1718.073242,227.140396 1720.822021,231.866684 1723.410767,236.679031 
	C1744.784424,276.410767 1742.607056,315.403351 1719.525635,353.637695 
	C1708.513428,371.879211 1694.321899,387.427612 1678.344971,401.417694 
	C1676.473511,403.056427 1674.717773,404.827118 1672.782715,406.889618 
	C1668.941895,396.652588 1664.115845,386.307587 1661.716797,375.427490 
	C1653.983765,340.355469 1654.596924,305.391052 1667.043457,271.336304 
	C1675.090088,249.319824 1689.549194,232.723679 1711.469482,223.293106 
	C1712.517700,222.842087 1713.670410,222.633652 1715.086426,222.343246 
z"/>
</svg>